<svg xmlns="http://www.w3.org/2000/svg" xmlns:xlink="http://www.w3.org/1999/xlink" width="896" zoomAndPan="magnify" viewBox="0 0 672 671.999997" height="896" preserveAspectRatio="xMidYMid meet" version="1.0"><defs><clipPath id="6818a5f71d"><path d="M 0 0 L 671.769531 0 L 671.769531 671.769531 L 0 671.769531 Z M 0 0 " clip-rule="nonzero"/></clipPath><clipPath id="89f6cd998a"><path d="M 335.886719 0 C 150.382812 0 0 150.382812 0 335.886719 C 0 521.390625 150.382812 671.769531 335.886719 671.769531 C 521.390625 671.769531 671.769531 521.390625 671.769531 335.886719 C 671.769531 150.382812 521.390625 0 335.886719 0 Z M 335.886719 0 " clip-rule="nonzero"/></clipPath><clipPath id="1e1b9833e0"><path d="M 240.304688 173.886719 L 431.554688 173.886719 L 431.554688 497.886719 L 240.304688 497.886719 Z M 240.304688 173.886719 " clip-rule="nonzero"/></clipPath></defs><g clip-path="url(#6818a5f71d)"><g clip-path="url(#89f6cd998a)"><path fill="#eaf6ed" d="M 0 0 L 671.769531 0 L 671.769531 671.769531 L 0 671.769531 Z M 0 0 " fill-opacity="1" fill-rule="nonzero"/></g></g><g clip-path="url(#1e1b9833e0)"><path fill="#5cb874" d="M 269.714844 173.886719 C 269.714844 173.886719 240.304688 173.886719 240.304688 203.34375 L 240.304688 468.429688 C 240.304688 497.882812 269.714844 497.882812 269.714844 497.882812 L 402.050781 497.882812 C 402.050781 497.882812 431.460938 497.882812 431.460938 468.429688 L 431.460938 203.34375 C 431.460938 173.886719 402.050781 173.886719 402.050781 173.886719 Z M 256.503906 209.527344 L 256.503906 442.804688 L 415.261719 442.804688 L 415.261719 209.527344 Z M 335.882812 483.15625 C 341.972656 483.15625 346.910156 478.210938 346.910156 472.109375 C 346.910156 466.007812 341.972656 461.0625 335.882812 461.0625 C 329.792969 461.0625 324.855469 466.007812 324.855469 472.109375 C 324.855469 478.210938 329.792969 483.15625 335.882812 483.15625 Z M 302.375 188.617188 C 300.578125 188.617188 299.121094 190.035156 299.121094 191.867188 L 299.121094 192.726562 C 299.121094 194.523438 300.589844 195.980469 302.375 195.980469 L 369.390625 195.980469 C 371.1875 195.980469 372.644531 194.558594 372.644531 192.726562 L 372.644531 191.867188 C 372.644531 190.070312 371.175781 188.617188 369.390625 188.617188 Z M 302.375 188.617188 " fill-opacity="1" fill-rule="evenodd"/></g></svg>