<svg xmlns="http://www.w3.org/2000/svg" xmlns:xlink="http://www.w3.org/1999/xlink" width="479" zoomAndPan="magnify" viewBox="0 0 359.25 323.999988" height="432" preserveAspectRatio="xMidYMid meet" version="1.0"><defs><clipPath id="a277a56275"><path d="M 164 0.335938 L 358 0.335938 L 358 287 L 164 287 Z M 164 0.335938 " clip-rule="nonzero"/></clipPath><clipPath id="ef7b67f56c"><path d="M 164 0.335938 L 358 0.335938 L 358 287 L 164 287 Z M 164 0.335938 " clip-rule="nonzero"/></clipPath></defs><g clip-path="url(#a277a56275)"><path fill="#404040" d="M 270.058594 37.996094 L 211.453125 37.996094 L 224.679688 24.769531 C 225.359375 24.140625 225.964844 23.449219 226.503906 22.695312 C 227.039062 21.941406 227.496094 21.144531 227.875 20.296875 C 228.25 19.453125 228.539062 18.578125 228.738281 17.675781 C 228.941406 16.773438 229.046875 15.859375 229.066406 14.933594 C 229.082031 14.007812 229.003906 13.089844 228.835938 12.179688 C 228.667969 11.273438 228.410156 10.386719 228.0625 9.53125 C 227.71875 8.671875 227.289062 7.859375 226.777344 7.085938 C 226.269531 6.316406 225.6875 5.601562 225.03125 4.949219 C 224.378906 4.292969 223.664062 3.710938 222.894531 3.199219 C 222.121094 2.691406 221.308594 2.261719 220.449219 1.914062 C 219.589844 1.570312 218.707031 1.3125 217.796875 1.140625 C 216.886719 0.972656 215.972656 0.898438 215.046875 0.914062 C 214.121094 0.929688 213.207031 1.039062 212.304688 1.238281 C 211.398438 1.441406 210.527344 1.726562 209.679688 2.105469 C 208.835938 2.480469 208.039062 2.9375 207.285156 3.476562 C 206.53125 4.011719 205.839844 4.621094 205.207031 5.296875 L 168.46875 42.039062 C 167.210938 43.324219 166.230469 44.792969 165.527344 46.449219 C 164.792969 48.148438 164.425781 49.921875 164.425781 51.777344 C 164.425781 53.628906 164.792969 55.402344 165.527344 57.101562 C 166.230469 58.757812 167.210938 60.226562 168.46875 61.511719 L 205.207031 98.253906 C 205.847656 98.890625 206.542969 99.460938 207.296875 99.964844 C 208.046875 100.464844 208.839844 100.890625 209.675781 101.234375 C 210.511719 101.582031 211.371094 101.84375 212.257812 102.019531 C 213.144531 102.195312 214.042969 102.28125 214.945312 102.28125 C 215.847656 102.28125 216.746094 102.195312 217.632812 102.019531 C 218.519531 101.84375 219.378906 101.582031 220.214844 101.234375 C 221.050781 100.890625 221.84375 100.464844 222.59375 99.964844 C 223.347656 99.460938 224.042969 98.890625 224.679688 98.253906 C 225.320312 97.613281 225.890625 96.917969 226.390625 96.167969 C 226.894531 95.414062 227.316406 94.621094 227.664062 93.785156 C 228.007812 92.949219 228.269531 92.089844 228.445312 91.203125 C 228.621094 90.316406 228.710938 89.421875 228.710938 88.515625 C 228.710938 87.613281 228.621094 86.71875 228.445312 85.832031 C 228.269531 84.945312 228.007812 84.082031 227.664062 83.25 C 227.316406 82.414062 226.894531 81.621094 226.390625 80.867188 C 225.890625 80.117188 225.320312 79.421875 224.679688 78.78125 L 211.453125 65.554688 L 270.058594 65.554688 C 272.011719 65.558594 273.960938 65.660156 275.902344 65.859375 C 277.847656 66.054688 279.777344 66.34375 281.691406 66.730469 C 283.609375 67.117188 285.5 67.59375 287.367188 68.164062 C 289.238281 68.734375 291.074219 69.398438 292.875 70.148438 C 294.679688 70.898438 296.445312 71.734375 298.164062 72.65625 C 299.886719 73.582031 301.5625 74.585938 303.183594 75.671875 C 304.808594 76.757812 306.375 77.921875 307.882812 79.160156 C 309.394531 80.402344 310.839844 81.710938 312.222656 83.09375 C 313.601562 84.476562 314.914062 85.921875 316.152344 87.429688 C 317.394531 88.941406 318.558594 90.507812 319.644531 92.132812 C 320.730469 93.753906 321.734375 95.429688 322.660156 97.148438 C 323.582031 98.871094 324.417969 100.636719 325.167969 102.4375 C 325.917969 104.242188 326.578125 106.078125 327.148438 107.949219 C 327.722656 109.816406 328.199219 111.707031 328.585938 113.625 C 328.96875 115.539062 329.261719 117.46875 329.457031 119.414062 C 329.65625 121.355469 329.757812 123.304688 329.761719 125.257812 L 329.761719 198.742188 C 329.757812 200.695312 329.65625 202.644531 329.457031 204.585938 C 329.261719 206.53125 328.96875 208.460938 328.585938 210.375 C 328.199219 212.292969 327.722656 214.183594 327.148438 216.050781 C 326.578125 217.921875 325.917969 219.757812 325.167969 221.5625 C 324.417969 223.363281 323.582031 225.128906 322.660156 226.851562 C 321.734375 228.570312 320.730469 230.246094 319.644531 231.867188 C 318.558594 233.492188 317.394531 235.058594 316.152344 236.570312 C 314.914062 238.078125 313.601562 239.523438 312.222656 240.90625 C 310.839844 242.289062 309.394531 243.597656 307.882812 244.839844 C 306.375 246.078125 304.808594 247.242188 303.183594 248.328125 C 301.5625 249.414062 299.886719 250.417969 298.164062 251.34375 C 296.445312 252.265625 294.679688 253.101562 292.875 253.851562 C 291.074219 254.601562 289.238281 255.265625 287.367188 255.835938 C 285.5 256.40625 283.609375 256.882812 281.691406 257.269531 C 279.777344 257.65625 277.847656 257.945312 275.902344 258.140625 C 273.960938 258.339844 272.011719 258.441406 270.058594 258.445312 L 251.6875 258.445312 C 250.78125 258.445312 249.886719 258.535156 249 258.710938 C 248.109375 258.886719 247.25 259.148438 246.414062 259.496094 C 245.578125 259.839844 244.785156 260.265625 244.03125 260.769531 C 243.28125 261.269531 242.582031 261.84375 241.945312 262.480469 C 241.304688 263.121094 240.734375 263.816406 240.230469 264.570312 C 239.726562 265.320312 239.304688 266.117188 238.957031 266.953125 C 238.609375 267.789062 238.351562 268.648438 238.171875 269.535156 C 237.996094 270.421875 237.910156 271.320312 237.910156 272.222656 C 237.910156 273.128906 237.996094 274.023438 238.171875 274.914062 C 238.351562 275.800781 238.609375 276.660156 238.957031 277.496094 C 239.304688 278.332031 239.726562 279.125 240.230469 279.878906 C 240.734375 280.632812 241.304688 281.328125 241.945312 281.96875 C 242.582031 282.605469 243.28125 283.179688 244.03125 283.679688 C 244.785156 284.183594 245.578125 284.605469 246.414062 284.953125 C 247.25 285.300781 248.109375 285.5625 249 285.738281 C 249.886719 285.914062 250.78125 286.003906 251.6875 286.003906 L 270.058594 286.003906 C 271.484375 286.003906 272.914062 285.96875 274.339844 285.898438 C 275.765625 285.828125 277.1875 285.722656 278.609375 285.582031 C 280.03125 285.441406 281.449219 285.265625 282.859375 285.058594 C 284.273438 284.847656 285.679688 284.605469 287.082031 284.324219 C 288.480469 284.046875 289.875 283.734375 291.261719 283.386719 C 292.644531 283.039062 294.019531 282.660156 295.386719 282.246094 C 296.753906 281.832031 298.109375 281.382812 299.453125 280.902344 C 300.800781 280.421875 302.132812 279.90625 303.449219 279.359375 C 304.769531 278.8125 306.074219 278.234375 307.367188 277.625 C 308.65625 277.015625 309.933594 276.371094 311.191406 275.699219 C 312.453125 275.027344 313.695312 274.320312 314.917969 273.585938 C 316.144531 272.851562 317.347656 272.089844 318.535156 271.296875 C 319.722656 270.503906 320.890625 269.679688 322.039062 268.832031 C 323.1875 267.980469 324.3125 267.101562 325.414062 266.195312 C 326.519531 265.289062 327.601562 264.355469 328.65625 263.398438 C 329.714844 262.4375 330.75 261.453125 331.761719 260.445312 C 332.769531 259.433594 333.753906 258.402344 334.714844 257.34375 C 335.671875 256.285156 336.605469 255.203125 337.511719 254.097656 C 338.417969 252.996094 339.296875 251.871094 340.144531 250.722656 C 340.996094 249.574219 341.820312 248.410156 342.613281 247.222656 C 343.40625 246.035156 344.167969 244.828125 344.902344 243.601562 C 345.636719 242.378906 346.339844 241.136719 347.015625 239.875 C 347.6875 238.617188 348.328125 237.339844 348.941406 236.050781 C 349.550781 234.757812 350.128906 233.453125 350.675781 232.136719 C 351.222656 230.816406 351.734375 229.484375 352.21875 228.140625 C 352.699219 226.792969 353.144531 225.4375 353.5625 224.070312 C 353.976562 222.707031 354.355469 221.328125 354.703125 219.945312 C 355.050781 218.558594 355.363281 217.164062 355.640625 215.765625 C 355.921875 214.363281 356.164062 212.957031 356.375 211.546875 C 356.582031 210.132812 356.757812 208.714844 356.898438 207.292969 C 357.039062 205.875 357.144531 204.449219 357.214844 203.023438 C 357.285156 201.597656 357.316406 200.167969 357.316406 198.742188 L 357.316406 125.257812 C 357.316406 123.832031 357.285156 122.402344 357.214844 120.976562 C 357.144531 119.550781 357.039062 118.125 356.898438 116.707031 C 356.757812 115.285156 356.582031 113.867188 356.375 112.453125 C 356.164062 111.042969 355.921875 109.636719 355.640625 108.234375 C 355.363281 106.835938 355.050781 105.441406 354.703125 104.054688 C 354.355469 102.671875 353.976562 101.292969 353.5625 99.929688 C 353.144531 98.5625 352.699219 97.207031 352.21875 95.859375 C 351.734375 94.515625 351.222656 93.183594 350.675781 91.863281 C 350.128906 90.546875 349.550781 89.242188 348.941406 87.949219 C 348.328125 86.660156 347.6875 85.382812 347.015625 84.125 C 346.339844 82.863281 345.636719 81.621094 344.902344 80.398438 C 344.167969 79.171875 343.40625 77.964844 342.613281 76.777344 C 341.820312 75.589844 340.996094 74.425781 340.144531 73.277344 C 339.296875 72.128906 338.417969 71.003906 337.511719 69.902344 C 336.605469 68.796875 335.671875 67.714844 334.714844 66.65625 C 333.753906 65.597656 332.769531 64.566406 331.761719 63.554688 C 330.75 62.546875 329.714844 61.5625 328.65625 60.601562 C 327.601562 59.644531 326.519531 58.710938 325.414062 57.804688 C 324.3125 56.898438 323.1875 56.019531 322.039062 55.167969 C 320.890625 54.320312 319.722656 53.496094 318.535156 52.703125 C 317.347656 51.910156 316.144531 51.144531 314.917969 50.414062 C 313.695312 49.679688 312.453125 48.972656 311.191406 48.300781 C 309.933594 47.628906 308.65625 46.984375 307.367188 46.375 C 306.074219 45.765625 304.769531 45.1875 303.449219 44.640625 C 302.132812 44.09375 300.800781 43.578125 299.453125 43.097656 C 298.109375 42.617188 296.753906 42.167969 295.386719 41.753906 C 294.019531 41.339844 292.644531 40.960938 291.261719 40.613281 C 289.875 40.265625 288.480469 39.953125 287.082031 39.675781 C 285.679688 39.394531 284.273438 39.152344 282.859375 38.941406 C 281.449219 38.734375 280.03125 38.558594 278.609375 38.417969 C 277.1875 38.277344 275.765625 38.171875 274.339844 38.101562 C 272.914062 38.03125 271.484375 37.996094 270.058594 37.996094 Z M 270.058594 37.996094 " fill-opacity="1" fill-rule="nonzero"/></g><path fill="#404040" d="M 251.6875 175.777344 C 252.589844 175.777344 253.488281 175.691406 254.375 175.511719 C 255.261719 175.335938 256.125 175.074219 256.960938 174.730469 C 257.796875 174.382812 258.589844 173.957031 259.339844 173.457031 C 260.09375 172.953125 260.789062 172.382812 261.429688 171.742188 C 262.070312 171.101562 262.640625 170.40625 263.140625 169.65625 C 263.644531 168.902344 264.070312 168.109375 264.414062 167.273438 C 264.761719 166.4375 265.023438 165.574219 265.199219 164.6875 C 265.375 163.800781 265.464844 162.90625 265.464844 162 C 265.464844 161.09375 265.375 160.199219 265.199219 159.3125 C 265.023438 158.425781 264.761719 157.5625 264.414062 156.726562 C 264.070312 155.890625 263.644531 155.097656 263.140625 154.34375 C 262.640625 153.59375 262.070312 152.898438 261.429688 152.257812 C 260.789062 151.617188 260.09375 151.046875 259.339844 150.542969 C 258.589844 150.042969 257.796875 149.617188 256.960938 149.269531 C 256.125 148.925781 255.261719 148.664062 254.375 148.488281 C 253.488281 148.308594 252.589844 148.222656 251.6875 148.222656 C 250.785156 148.234375 249.894531 148.332031 249.011719 148.515625 C 248.128906 148.699219 247.273438 148.96875 246.441406 149.320312 C 245.613281 149.667969 244.820312 150.097656 244.074219 150.597656 C 243.328125 151.101562 242.632812 151.671875 241.996094 152.308594 C 241.359375 152.949219 240.789062 153.640625 240.285156 154.386719 C 239.78125 155.136719 239.355469 155.925781 239.003906 156.753906 C 238.65625 157.585938 238.386719 158.441406 238.203125 159.324219 C 238.019531 160.207031 237.921875 161.097656 237.910156 162 C 237.921875 162.902344 238.019531 163.792969 238.203125 164.675781 C 238.386719 165.558594 238.65625 166.414062 239.003906 167.246094 C 239.355469 168.074219 239.78125 168.863281 240.285156 169.613281 C 240.789062 170.359375 241.359375 171.050781 241.996094 171.691406 C 242.632812 172.328125 243.328125 172.898438 244.074219 173.402344 C 244.820312 173.902344 245.613281 174.332031 246.441406 174.679688 C 247.273438 175.03125 248.128906 175.300781 249.011719 175.484375 C 249.894531 175.667969 250.785156 175.765625 251.6875 175.777344 Z M 251.6875 175.777344 " fill-opacity="1" fill-rule="nonzero"/><path fill="#404040" d="M 178.203125 148.222656 C 177.300781 148.234375 176.410156 148.332031 175.527344 148.515625 C 174.644531 148.699219 173.789062 148.96875 172.960938 149.320312 C 172.128906 149.667969 171.339844 150.097656 170.589844 150.597656 C 169.84375 151.101562 169.152344 151.671875 168.511719 152.308594 C 167.875 152.949219 167.304688 153.640625 166.800781 154.386719 C 166.300781 155.136719 165.871094 155.925781 165.523438 156.753906 C 165.171875 157.585938 164.90625 158.441406 164.71875 159.324219 C 164.535156 160.207031 164.4375 161.097656 164.425781 162 C 164.4375 162.910156 164.539062 163.808594 164.726562 164.699219 C 164.914062 165.585938 165.183594 166.449219 165.539062 167.285156 C 165.898438 168.121094 166.332031 168.917969 166.839844 169.667969 C 167.351562 170.421875 167.933594 171.117188 168.578125 171.753906 C 169.226562 172.390625 169.929688 172.960938 170.6875 173.464844 C 171.445312 173.964844 172.246094 174.386719 173.085938 174.734375 C 173.925781 175.078125 174.792969 175.339844 175.6875 175.515625 C 176.578125 175.691406 177.476562 175.777344 178.386719 175.777344 C 179.292969 175.777344 180.1875 175.691406 181.074219 175.511719 C 181.960938 175.335938 182.824219 175.074219 183.660156 174.730469 C 184.496094 174.382812 185.289062 173.957031 186.042969 173.457031 C 186.792969 172.953125 187.488281 172.382812 188.128906 171.742188 C 188.769531 171.101562 189.339844 170.40625 189.84375 169.65625 C 190.347656 168.902344 190.769531 168.109375 191.117188 167.273438 C 191.460938 166.4375 191.722656 165.574219 191.902344 164.6875 C 192.078125 163.800781 192.164062 162.90625 192.164062 162 C 192.164062 161.09375 192.078125 160.199219 191.902344 159.3125 C 191.722656 158.425781 191.460938 157.5625 191.117188 156.726562 C 190.769531 155.890625 190.347656 155.097656 189.84375 154.34375 C 189.339844 153.59375 188.769531 152.898438 188.128906 152.257812 C 187.488281 151.617188 186.792969 151.046875 186.042969 150.542969 C 185.289062 150.042969 184.496094 149.617188 183.660156 149.269531 C 182.824219 148.925781 181.960938 148.664062 181.074219 148.488281 C 180.1875 148.308594 179.292969 148.222656 178.386719 148.222656 Z M 178.203125 148.222656 " fill-opacity="1" fill-rule="nonzero"/><path fill="#404040" d="M 104.71875 148.222656 C 103.820312 148.234375 102.925781 148.332031 102.046875 148.515625 C 101.164062 148.699219 100.304688 148.96875 99.476562 149.320312 C 98.644531 149.667969 97.855469 150.097656 97.109375 150.597656 C 96.359375 151.101562 95.667969 151.671875 95.03125 152.308594 C 94.394531 152.949219 93.824219 153.640625 93.320312 154.386719 C 92.816406 155.136719 92.390625 155.925781 92.039062 156.753906 C 91.6875 157.585938 91.421875 158.441406 91.238281 159.324219 C 91.050781 160.207031 90.953125 161.097656 90.941406 162 C 90.953125 162.910156 91.054688 163.808594 91.242188 164.699219 C 91.429688 165.585938 91.703125 166.449219 92.058594 167.285156 C 92.414062 168.121094 92.847656 168.917969 93.359375 169.667969 C 93.871094 170.421875 94.449219 171.117188 95.097656 171.753906 C 95.742188 172.390625 96.445312 172.960938 97.203125 173.464844 C 97.960938 173.964844 98.761719 174.386719 99.601562 174.734375 C 100.445312 175.078125 101.3125 175.339844 102.203125 175.515625 C 103.09375 175.691406 103.996094 175.777344 104.90625 175.777344 C 105.808594 175.777344 106.703125 175.691406 107.59375 175.511719 C 108.480469 175.335938 109.339844 175.074219 110.175781 174.730469 C 111.011719 174.382812 111.808594 173.957031 112.558594 173.457031 C 113.3125 172.953125 114.007812 172.382812 114.648438 171.742188 C 115.285156 171.101562 115.859375 170.40625 116.359375 169.65625 C 116.863281 168.902344 117.289062 168.109375 117.632812 167.273438 C 117.980469 166.4375 118.242188 165.574219 118.417969 164.6875 C 118.59375 163.800781 118.683594 162.90625 118.683594 162 C 118.683594 161.09375 118.59375 160.199219 118.417969 159.3125 C 118.242188 158.425781 117.980469 157.5625 117.632812 156.726562 C 117.289062 155.890625 116.863281 155.097656 116.359375 154.34375 C 115.859375 153.59375 115.285156 152.898438 114.648438 152.257812 C 114.007812 151.617188 113.3125 151.046875 112.558594 150.542969 C 111.808594 150.042969 111.011719 149.617188 110.175781 149.269531 C 109.339844 148.925781 108.480469 148.664062 107.59375 148.488281 C 106.703125 148.308594 105.808594 148.222656 104.90625 148.222656 Z M 104.71875 148.222656 " fill-opacity="1" fill-rule="nonzero"/><path fill="#404040" d="M 190.878906 266.898438 C 190.175781 265.242188 189.195312 263.773438 187.941406 262.488281 L 151.199219 225.746094 C 150.566406 225.070312 149.875 224.460938 149.125 223.925781 C 148.371094 223.386719 147.570312 222.929688 146.726562 222.554688 C 145.882812 222.175781 145.007812 221.890625 144.105469 221.6875 C 143.199219 221.488281 142.285156 221.378906 141.363281 221.363281 C 140.4375 221.347656 139.519531 221.421875 138.609375 221.589844 C 137.699219 221.757812 136.816406 222.015625 135.957031 222.363281 C 135.101562 222.710938 134.285156 223.140625 133.515625 223.648438 C 132.742188 224.160156 132.03125 224.742188 131.375 225.394531 C 130.722656 226.050781 130.140625 226.761719 129.628906 227.535156 C 129.117188 228.304688 128.6875 229.121094 128.34375 229.980469 C 127.996094 230.835938 127.738281 231.71875 127.570312 232.628906 C 127.402344 233.539062 127.324219 234.457031 127.34375 235.382812 C 127.359375 236.308594 127.46875 237.222656 127.667969 238.125 C 127.867188 239.027344 128.15625 239.902344 128.53125 240.746094 C 128.910156 241.59375 129.367188 242.390625 129.902344 243.144531 C 130.441406 243.898438 131.046875 244.589844 131.726562 245.21875 L 144.953125 258.445312 L 86.351562 258.445312 C 84.394531 258.441406 82.449219 258.339844 80.503906 258.140625 C 78.558594 257.945312 76.628906 257.65625 74.714844 257.269531 C 72.800781 256.882812 70.90625 256.40625 69.039062 255.835938 C 67.171875 255.265625 65.335938 254.601562 63.53125 253.851562 C 61.726562 253.101562 59.964844 252.265625 58.242188 251.34375 C 56.519531 250.417969 54.847656 249.414062 53.222656 248.328125 C 51.597656 247.242188 50.03125 246.078125 48.523438 244.839844 C 47.011719 243.597656 45.566406 242.289062 44.1875 240.90625 C 42.804688 239.523438 41.492188 238.078125 40.253906 236.570312 C 39.011719 235.058594 37.851562 233.492188 36.761719 231.867188 C 35.675781 230.246094 34.671875 228.570312 33.75 226.851562 C 32.824219 225.128906 31.988281 223.363281 31.238281 221.5625 C 30.488281 219.757812 29.828125 217.921875 29.257812 216.050781 C 28.6875 214.183594 28.207031 212.292969 27.824219 210.375 C 27.4375 208.460938 27.144531 206.53125 26.949219 204.585938 C 26.753906 202.644531 26.652344 200.695312 26.644531 198.742188 L 26.644531 125.257812 C 26.652344 123.304688 26.753906 121.355469 26.949219 119.414062 C 27.144531 117.46875 27.4375 115.539062 27.824219 113.625 C 28.207031 111.707031 28.6875 109.816406 29.257812 107.949219 C 29.828125 106.078125 30.488281 104.242188 31.238281 102.4375 C 31.988281 100.636719 32.824219 98.871094 33.75 97.148438 C 34.671875 95.429688 35.675781 93.753906 36.761719 92.132812 C 37.851562 90.507812 39.011719 88.941406 40.253906 87.429688 C 41.492188 85.921875 42.804688 84.476562 44.1875 83.09375 C 45.566406 81.710938 47.011719 80.402344 48.523438 79.160156 C 50.03125 77.921875 51.597656 76.757812 53.222656 75.671875 C 54.847656 74.585938 56.519531 73.582031 58.242188 72.65625 C 59.964844 71.734375 61.726562 70.898438 63.53125 70.148438 C 65.335938 69.398438 67.171875 68.734375 69.039062 68.164062 C 70.90625 67.59375 72.800781 67.117188 74.714844 66.730469 C 76.628906 66.34375 78.558594 66.054688 80.503906 65.859375 C 82.449219 65.660156 84.394531 65.558594 86.351562 65.554688 L 104.71875 65.554688 C 105.625 65.554688 106.519531 65.464844 107.410156 65.289062 C 108.296875 65.113281 109.15625 64.851562 109.992188 64.503906 C 110.828125 64.160156 111.625 63.734375 112.375 63.230469 C 113.128906 62.730469 113.824219 62.15625 114.464844 61.519531 C 115.101562 60.878906 115.675781 60.183594 116.175781 59.429688 C 116.679688 58.679688 117.105469 57.882812 117.449219 57.046875 C 117.796875 56.210938 118.058594 55.351562 118.234375 54.464844 C 118.410156 53.578125 118.5 52.679688 118.5 51.777344 C 118.5 50.871094 118.410156 49.976562 118.234375 49.085938 C 118.058594 48.199219 117.796875 47.339844 117.449219 46.503906 C 117.105469 45.667969 116.679688 44.875 116.175781 44.121094 C 115.675781 43.367188 115.101562 42.671875 114.464844 42.03125 C 113.824219 41.394531 113.128906 40.820312 112.375 40.320312 C 111.625 39.816406 110.828125 39.390625 109.992188 39.046875 C 109.15625 38.699219 108.296875 38.4375 107.410156 38.261719 C 106.519531 38.085938 105.625 37.996094 104.71875 37.996094 L 86.351562 37.996094 C 84.921875 37.996094 83.496094 38.03125 82.066406 38.101562 C 80.640625 38.171875 79.21875 38.277344 77.796875 38.417969 C 76.375 38.558594 74.957031 38.734375 73.546875 38.941406 C 72.132812 39.152344 70.726562 39.394531 69.324219 39.675781 C 67.925781 39.953125 66.53125 40.265625 65.148438 40.613281 C 63.761719 40.960938 62.386719 41.339844 61.019531 41.753906 C 59.652344 42.167969 58.296875 42.617188 56.953125 43.097656 C 55.609375 43.578125 54.277344 44.09375 52.957031 44.640625 C 51.636719 45.1875 50.332031 45.765625 49.042969 46.375 C 47.75 46.984375 46.476562 47.628906 45.214844 48.300781 C 43.957031 48.972656 42.714844 49.679688 41.488281 50.414062 C 40.265625 51.144531 39.058594 51.910156 37.871094 52.703125 C 36.683594 53.496094 35.515625 54.320312 34.367188 55.167969 C 33.222656 56.019531 32.097656 56.898438 30.992188 57.804688 C 29.886719 58.710938 28.808594 59.644531 27.75 60.601562 C 26.691406 61.5625 25.65625 62.546875 24.648438 63.554688 C 23.636719 64.566406 22.652344 65.597656 21.695312 66.65625 C 20.734375 67.714844 19.800781 68.796875 18.894531 69.902344 C 17.992188 71.003906 17.113281 72.128906 16.261719 73.277344 C 15.410156 74.425781 14.589844 75.589844 13.796875 76.777344 C 13 77.964844 12.238281 79.171875 11.503906 80.398438 C 10.769531 81.621094 10.066406 82.863281 9.394531 84.125 C 8.71875 85.382812 8.078125 86.660156 7.46875 87.949219 C 6.855469 89.242188 6.277344 90.546875 5.730469 91.863281 C 5.183594 93.183594 4.671875 94.515625 4.191406 95.859375 C 3.707031 97.207031 3.261719 98.5625 2.847656 99.929688 C 2.433594 101.292969 2.050781 102.671875 1.703125 104.054688 C 1.355469 105.441406 1.042969 106.835938 0.765625 108.234375 C 0.488281 109.636719 0.242188 111.042969 0.0351562 112.453125 C -0.175781 113.867188 -0.351562 115.285156 -0.492188 116.707031 C -0.632812 118.125 -0.734375 119.550781 -0.804688 120.976562 C -0.875 122.402344 -0.910156 123.832031 -0.910156 125.257812 L -0.910156 198.742188 C -0.910156 200.167969 -0.875 201.597656 -0.804688 203.023438 C -0.734375 204.449219 -0.632812 205.875 -0.492188 207.292969 C -0.351562 208.714844 -0.175781 210.132812 0.0351562 211.546875 C 0.242188 212.957031 0.488281 214.363281 0.765625 215.765625 C 1.042969 217.164062 1.355469 218.558594 1.703125 219.945312 C 2.050781 221.328125 2.433594 222.707031 2.847656 224.070312 C 3.261719 225.4375 3.707031 226.792969 4.191406 228.140625 C 4.671875 229.484375 5.183594 230.816406 5.730469 232.136719 C 6.277344 233.453125 6.855469 234.757812 7.46875 236.050781 C 8.078125 237.339844 8.71875 238.617188 9.390625 239.875 C 10.066406 241.136719 10.769531 242.378906 11.503906 243.601562 C 12.238281 244.828125 13 246.035156 13.796875 247.222656 C 14.589844 248.410156 15.410156 249.574219 16.261719 250.722656 C 17.113281 251.871094 17.992188 252.996094 18.894531 254.097656 C 19.800781 255.203125 20.734375 256.285156 21.695312 257.34375 C 22.652344 258.402344 23.636719 259.433594 24.648438 260.445312 C 25.65625 261.453125 26.691406 262.4375 27.75 263.398438 C 28.808594 264.355469 29.886719 265.289062 30.992188 266.195312 C 32.097656 267.101562 33.222656 267.980469 34.367188 268.832031 C 35.515625 269.679688 36.683594 270.503906 37.871094 271.296875 C 39.058594 272.089844 40.265625 272.851562 41.488281 273.585938 C 42.714844 274.320312 43.957031 275.027344 45.214844 275.699219 C 46.476562 276.371094 47.75 277.015625 49.042969 277.625 C 50.332031 278.234375 51.636719 278.8125 52.957031 279.359375 C 54.277344 279.90625 55.609375 280.421875 56.953125 280.902344 C 58.296875 281.382812 59.652344 281.832031 61.019531 282.246094 C 62.386719 282.660156 63.761719 283.039062 65.148438 283.386719 C 66.53125 283.734375 67.925781 284.046875 69.324219 284.324219 C 70.726562 284.605469 72.132812 284.847656 73.546875 285.058594 C 74.957031 285.265625 76.375 285.441406 77.796875 285.582031 C 79.21875 285.722656 80.640625 285.828125 82.066406 285.898438 C 83.496094 285.96875 84.921875 286.003906 86.351562 286.003906 L 144.953125 286.003906 L 131.726562 299.230469 C 131.085938 299.867188 130.515625 300.566406 130.015625 301.316406 C 129.511719 302.070312 129.089844 302.863281 128.742188 303.695312 C 128.398438 304.53125 128.136719 305.394531 127.960938 306.28125 C 127.785156 307.167969 127.695312 308.0625 127.695312 308.964844 C 127.695312 309.871094 127.785156 310.765625 127.960938 311.652344 C 128.136719 312.539062 128.398438 313.398438 128.742188 314.234375 C 129.089844 315.070312 129.511719 315.863281 130.015625 316.613281 C 130.515625 317.367188 131.085938 318.0625 131.726562 318.703125 C 132.363281 319.339844 133.0625 319.910156 133.8125 320.414062 C 134.566406 320.914062 135.359375 321.339844 136.195312 321.683594 C 137.027344 322.03125 137.890625 322.292969 138.777344 322.46875 C 139.664062 322.644531 140.558594 322.730469 141.460938 322.730469 C 142.367188 322.730469 143.261719 322.644531 144.148438 322.46875 C 145.035156 322.292969 145.894531 322.03125 146.730469 321.683594 C 147.566406 321.339844 148.359375 320.914062 149.113281 320.414062 C 149.863281 319.910156 150.558594 319.339844 151.199219 318.703125 L 187.941406 281.960938 C 189.195312 280.675781 190.175781 279.207031 190.878906 277.550781 C 191.613281 275.851562 191.984375 274.078125 191.984375 272.222656 C 191.984375 270.371094 191.613281 268.597656 190.878906 266.898438 Z M 190.878906 266.898438 " fill-opacity="1" fill-rule="nonzero"/><g clip-path="url(#ef7b67f56c)"><path fill="#404040" d="M 270.058594 37.996094 L 211.453125 37.996094 L 224.679688 24.769531 C 225.359375 24.140625 225.964844 23.449219 226.503906 22.695312 C 227.039062 21.941406 227.496094 21.144531 227.875 20.296875 C 228.25 19.453125 228.539062 18.578125 228.738281 17.675781 C 228.941406 16.773438 229.046875 15.859375 229.066406 14.933594 C 229.082031 14.007812 229.003906 13.089844 228.835938 12.179688 C 228.667969 11.273438 228.410156 10.386719 228.0625 9.53125 C 227.71875 8.671875 227.289062 7.859375 226.777344 7.085938 C 226.269531 6.316406 225.6875 5.601562 225.03125 4.949219 C 224.378906 4.292969 223.664062 3.710938 222.894531 3.199219 C 222.121094 2.691406 221.308594 2.261719 220.449219 1.914062 C 219.589844 1.570312 218.707031 1.3125 217.796875 1.140625 C 216.886719 0.972656 215.972656 0.898438 215.046875 0.914062 C 214.121094 0.929688 213.207031 1.039062 212.304688 1.238281 C 211.398438 1.441406 210.527344 1.726562 209.679688 2.105469 C 208.835938 2.480469 208.039062 2.9375 207.285156 3.476562 C 206.53125 4.011719 205.839844 4.621094 205.207031 5.296875 L 168.46875 42.039062 C 167.210938 43.324219 166.230469 44.792969 165.527344 46.449219 C 164.792969 48.148438 164.425781 49.921875 164.425781 51.777344 C 164.425781 53.628906 164.792969 55.402344 165.527344 57.101562 C 166.230469 58.757812 167.210938 60.226562 168.46875 61.511719 L 205.207031 98.253906 C 205.847656 98.890625 206.542969 99.460938 207.296875 99.964844 C 208.046875 100.464844 208.839844 100.890625 209.675781 101.234375 C 210.511719 101.582031 211.371094 101.84375 212.257812 102.019531 C 213.144531 102.195312 214.042969 102.28125 214.945312 102.28125 C 215.847656 102.28125 216.746094 102.195312 217.632812 102.019531 C 218.519531 101.84375 219.378906 101.582031 220.214844 101.234375 C 221.050781 100.890625 221.84375 100.464844 222.59375 99.964844 C 223.347656 99.460938 224.042969 98.890625 224.679688 98.253906 C 225.320312 97.613281 225.890625 96.917969 226.390625 96.167969 C 226.894531 95.414062 227.316406 94.621094 227.664062 93.785156 C 228.007812 92.949219 228.269531 92.089844 228.445312 91.203125 C 228.621094 90.316406 228.710938 89.421875 228.710938 88.515625 C 228.710938 87.613281 228.621094 86.71875 228.445312 85.832031 C 228.269531 84.945312 228.007812 84.082031 227.664062 83.25 C 227.316406 82.414062 226.894531 81.621094 226.390625 80.867188 C 225.890625 80.117188 225.320312 79.421875 224.679688 78.78125 L 211.453125 65.554688 L 270.058594 65.554688 C 272.011719 65.558594 273.960938 65.660156 275.902344 65.859375 C 277.847656 66.054688 279.777344 66.34375 281.691406 66.730469 C 283.609375 67.117188 285.5 67.59375 287.367188 68.164062 C 289.238281 68.734375 291.074219 69.398438 292.875 70.148438 C 294.679688 70.898438 296.445312 71.734375 298.164062 72.65625 C 299.886719 73.582031 301.5625 74.585938 303.183594 75.671875 C 304.808594 76.757812 306.375 77.921875 307.882812 79.160156 C 309.394531 80.402344 310.839844 81.710938 312.222656 83.09375 C 313.601562 84.476562 314.914062 85.921875 316.152344 87.429688 C 317.394531 88.941406 318.558594 90.507812 319.644531 92.132812 C 320.730469 93.753906 321.734375 95.429688 322.660156 97.148438 C 323.582031 98.871094 324.417969 100.636719 325.167969 102.4375 C 325.917969 104.242188 326.578125 106.078125 327.148438 107.949219 C 327.722656 109.816406 328.199219 111.707031 328.585938 113.625 C 328.96875 115.539062 329.261719 117.46875 329.457031 119.414062 C 329.65625 121.355469 329.757812 123.304688 329.761719 125.257812 L 329.761719 198.742188 C 329.757812 200.695312 329.65625 202.644531 329.457031 204.585938 C 329.261719 206.53125 328.96875 208.460938 328.585938 210.375 C 328.199219 212.292969 327.722656 214.183594 327.148438 216.050781 C 326.578125 217.921875 325.917969 219.757812 325.167969 221.5625 C 324.417969 223.363281 323.582031 225.128906 322.660156 226.851562 C 321.734375 228.570312 320.730469 230.246094 319.644531 231.867188 C 318.558594 233.492188 317.394531 235.058594 316.152344 236.570312 C 314.914062 238.078125 313.601562 239.523438 312.222656 240.90625 C 310.839844 242.289062 309.394531 243.597656 307.882812 244.839844 C 306.375 246.078125 304.808594 247.242188 303.183594 248.328125 C 301.5625 249.414062 299.886719 250.417969 298.164062 251.34375 C 296.445312 252.265625 294.679688 253.101562 292.875 253.851562 C 291.074219 254.601562 289.238281 255.265625 287.367188 255.835938 C 285.5 256.40625 283.609375 256.882812 281.691406 257.269531 C 279.777344 257.65625 277.847656 257.945312 275.902344 258.140625 C 273.960938 258.339844 272.011719 258.441406 270.058594 258.445312 L 251.6875 258.445312 C 250.78125 258.445312 249.886719 258.535156 249 258.710938 C 248.109375 258.886719 247.25 259.148438 246.414062 259.496094 C 245.578125 259.839844 244.785156 260.265625 244.03125 260.769531 C 243.28125 261.269531 242.582031 261.84375 241.945312 262.480469 C 241.304688 263.121094 240.734375 263.816406 240.230469 264.570312 C 239.726562 265.320312 239.304688 266.117188 238.957031 266.953125 C 238.609375 267.789062 238.351562 268.648438 238.171875 269.535156 C 237.996094 270.421875 237.910156 271.320312 237.910156 272.222656 C 237.910156 273.128906 237.996094 274.023438 238.171875 274.914062 C 238.351562 275.800781 238.609375 276.660156 238.957031 277.496094 C 239.304688 278.332031 239.726562 279.125 240.230469 279.878906 C 240.734375 280.632812 241.304688 281.328125 241.945312 281.96875 C 242.582031 282.605469 243.28125 283.179688 244.03125 283.679688 C 244.785156 284.183594 245.578125 284.605469 246.414062 284.953125 C 247.25 285.300781 248.109375 285.5625 249 285.738281 C 249.886719 285.914062 250.78125 286.003906 251.6875 286.003906 L 270.058594 286.003906 C 271.484375 286.003906 272.914062 285.96875 274.339844 285.898438 C 275.765625 285.828125 277.1875 285.722656 278.609375 285.582031 C 280.03125 285.441406 281.449219 285.265625 282.859375 285.058594 C 284.273438 284.847656 285.679688 284.605469 287.082031 284.324219 C 288.480469 284.046875 289.875 283.734375 291.261719 283.386719 C 292.644531 283.039062 294.019531 282.660156 295.386719 282.246094 C 296.753906 281.832031 298.109375 281.382812 299.453125 280.902344 C 300.800781 280.421875 302.132812 279.90625 303.449219 279.359375 C 304.769531 278.8125 306.074219 278.234375 307.367188 277.625 C 308.65625 277.015625 309.933594 276.371094 311.191406 275.699219 C 312.453125 275.027344 313.695312 274.320312 314.917969 273.585938 C 316.144531 272.851562 317.347656 272.089844 318.535156 271.296875 C 319.722656 270.503906 320.890625 269.679688 322.039062 268.832031 C 323.1875 267.980469 324.3125 267.101562 325.414062 266.195312 C 326.519531 265.289062 327.601562 264.355469 328.65625 263.398438 C 329.714844 262.4375 330.75 261.453125 331.761719 260.445312 C 332.769531 259.433594 333.753906 258.402344 334.714844 257.34375 C 335.671875 256.285156 336.605469 255.203125 337.511719 254.097656 C 338.417969 252.996094 339.296875 251.871094 340.144531 250.722656 C 340.996094 249.574219 341.820312 248.410156 342.613281 247.222656 C 343.40625 246.035156 344.167969 244.828125 344.902344 243.601562 C 345.636719 242.378906 346.339844 241.136719 347.015625 239.875 C 347.6875 238.617188 348.328125 237.339844 348.941406 236.050781 C 349.550781 234.757812 350.128906 233.453125 350.675781 232.136719 C 351.222656 230.816406 351.734375 229.484375 352.21875 228.140625 C 352.699219 226.792969 353.144531 225.4375 353.5625 224.070312 C 353.976562 222.707031 354.355469 221.328125 354.703125 219.945312 C 355.050781 218.558594 355.363281 217.164062 355.640625 215.765625 C 355.921875 214.363281 356.164062 212.957031 356.375 211.546875 C 356.582031 210.132812 356.757812 208.714844 356.898438 207.292969 C 357.039062 205.875 357.144531 204.449219 357.214844 203.023438 C 357.285156 201.597656 357.316406 200.167969 357.316406 198.742188 L 357.316406 125.257812 C 357.316406 123.832031 357.285156 122.402344 357.214844 120.976562 C 357.144531 119.550781 357.039062 118.125 356.898438 116.707031 C 356.757812 115.285156 356.582031 113.867188 356.375 112.453125 C 356.164062 111.042969 355.921875 109.636719 355.640625 108.234375 C 355.363281 106.835938 355.050781 105.441406 354.703125 104.054688 C 354.355469 102.671875 353.976562 101.292969 353.5625 99.929688 C 353.144531 98.5625 352.699219 97.207031 352.21875 95.859375 C 351.734375 94.515625 351.222656 93.183594 350.675781 91.863281 C 350.128906 90.546875 349.550781 89.242188 348.941406 87.949219 C 348.328125 86.660156 347.6875 85.382812 347.015625 84.125 C 346.339844 82.863281 345.636719 81.621094 344.902344 80.398438 C 344.167969 79.171875 343.40625 77.964844 342.613281 76.777344 C 341.820312 75.589844 340.996094 74.425781 340.144531 73.277344 C 339.296875 72.128906 338.417969 71.003906 337.511719 69.902344 C 336.605469 68.796875 335.671875 67.714844 334.714844 66.65625 C 333.753906 65.597656 332.769531 64.566406 331.761719 63.554688 C 330.75 62.546875 329.714844 61.5625 328.65625 60.601562 C 327.601562 59.644531 326.519531 58.710938 325.414062 57.804688 C 324.3125 56.898438 323.1875 56.019531 322.039062 55.167969 C 320.890625 54.320312 319.722656 53.496094 318.535156 52.703125 C 317.347656 51.910156 316.144531 51.144531 314.917969 50.414062 C 313.695312 49.679688 312.453125 48.972656 311.191406 48.300781 C 309.933594 47.628906 308.65625 46.984375 307.367188 46.375 C 306.074219 45.765625 304.769531 45.1875 303.449219 44.640625 C 302.132812 44.09375 300.800781 43.578125 299.453125 43.097656 C 298.109375 42.617188 296.753906 42.167969 295.386719 41.753906 C 294.019531 41.339844 292.644531 40.960938 291.261719 40.613281 C 289.875 40.265625 288.480469 39.953125 287.082031 39.675781 C 285.679688 39.394531 284.273438 39.152344 282.859375 38.941406 C 281.449219 38.734375 280.03125 38.558594 278.609375 38.417969 C 277.1875 38.277344 275.765625 38.171875 274.339844 38.101562 C 272.914062 38.03125 271.484375 37.996094 270.058594 37.996094 Z M 270.058594 37.996094 " fill-opacity="1" fill-rule="nonzero"/></g><path fill="#404040" d="M 251.6875 175.777344 C 252.589844 175.777344 253.488281 175.691406 254.375 175.511719 C 255.261719 175.335938 256.125 175.074219 256.960938 174.730469 C 257.796875 174.382812 258.589844 173.957031 259.339844 173.457031 C 260.09375 172.953125 260.789062 172.382812 261.429688 171.742188 C 262.070312 171.101562 262.640625 170.40625 263.140625 169.65625 C 263.644531 168.902344 264.070312 168.109375 264.414062 167.273438 C 264.761719 166.4375 265.023438 165.574219 265.199219 164.6875 C 265.375 163.800781 265.464844 162.90625 265.464844 162 C 265.464844 161.09375 265.375 160.199219 265.199219 159.3125 C 265.023438 158.425781 264.761719 157.5625 264.414062 156.726562 C 264.070312 155.890625 263.644531 155.097656 263.140625 154.34375 C 262.640625 153.59375 262.070312 152.898438 261.429688 152.257812 C 260.789062 151.617188 260.09375 151.046875 259.339844 150.542969 C 258.589844 150.042969 257.796875 149.617188 256.960938 149.269531 C 256.125 148.925781 255.261719 148.664062 254.375 148.488281 C 253.488281 148.308594 252.589844 148.222656 251.6875 148.222656 C 250.785156 148.234375 249.894531 148.332031 249.011719 148.515625 C 248.128906 148.699219 247.273438 148.96875 246.441406 149.320312 C 245.613281 149.667969 244.820312 150.097656 244.074219 150.597656 C 243.328125 151.101562 242.632812 151.671875 241.996094 152.308594 C 241.359375 152.949219 240.789062 153.640625 240.285156 154.386719 C 239.78125 155.136719 239.355469 155.925781 239.003906 156.753906 C 238.65625 157.585938 238.386719 158.441406 238.203125 159.324219 C 238.019531 160.207031 237.921875 161.097656 237.910156 162 C 237.921875 162.902344 238.019531 163.792969 238.203125 164.675781 C 238.386719 165.558594 238.65625 166.414062 239.003906 167.246094 C 239.355469 168.074219 239.78125 168.863281 240.285156 169.613281 C 240.789062 170.359375 241.359375 171.050781 241.996094 171.691406 C 242.632812 172.328125 243.328125 172.898438 244.074219 173.402344 C 244.820312 173.902344 245.613281 174.332031 246.441406 174.679688 C 247.273438 175.03125 248.128906 175.300781 249.011719 175.484375 C 249.894531 175.667969 250.785156 175.765625 251.6875 175.777344 Z M 251.6875 175.777344 " fill-opacity="1" fill-rule="nonzero"/><path fill="#404040" d="M 178.203125 148.222656 C 177.300781 148.234375 176.410156 148.332031 175.527344 148.515625 C 174.644531 148.699219 173.789062 148.96875 172.960938 149.320312 C 172.128906 149.667969 171.339844 150.097656 170.589844 150.597656 C 169.84375 151.101562 169.152344 151.671875 168.511719 152.308594 C 167.875 152.949219 167.304688 153.640625 166.800781 154.386719 C 166.300781 155.136719 165.871094 155.925781 165.523438 156.753906 C 165.171875 157.585938 164.90625 158.441406 164.71875 159.324219 C 164.535156 160.207031 164.4375 161.097656 164.425781 162 C 164.4375 162.910156 164.539062 163.808594 164.726562 164.699219 C 164.914062 165.585938 165.183594 166.449219 165.539062 167.285156 C 165.898438 168.121094 166.332031 168.917969 166.839844 169.667969 C 167.351562 170.421875 167.933594 171.117188 168.578125 171.753906 C 169.226562 172.390625 169.929688 172.960938 170.6875 173.464844 C 171.445312 173.964844 172.246094 174.386719 173.085938 174.734375 C 173.925781 175.078125 174.792969 175.339844 175.6875 175.515625 C 176.578125 175.691406 177.476562 175.777344 178.386719 175.777344 C 179.292969 175.777344 180.1875 175.691406 181.074219 175.511719 C 181.960938 175.335938 182.824219 175.074219 183.660156 174.730469 C 184.496094 174.382812 185.289062 173.957031 186.042969 173.457031 C 186.792969 172.953125 187.488281 172.382812 188.128906 171.742188 C 188.769531 171.101562 189.339844 170.40625 189.84375 169.65625 C 190.347656 168.902344 190.769531 168.109375 191.117188 167.273438 C 191.460938 166.4375 191.722656 165.574219 191.902344 164.6875 C 192.078125 163.800781 192.164062 162.90625 192.164062 162 C 192.164062 161.09375 192.078125 160.199219 191.902344 159.3125 C 191.722656 158.425781 191.460938 157.5625 191.117188 156.726562 C 190.769531 155.890625 190.347656 155.097656 189.84375 154.34375 C 189.339844 153.59375 188.769531 152.898438 188.128906 152.257812 C 187.488281 151.617188 186.792969 151.046875 186.042969 150.542969 C 185.289062 150.042969 184.496094 149.617188 183.660156 149.269531 C 182.824219 148.925781 181.960938 148.664062 181.074219 148.488281 C 180.1875 148.308594 179.292969 148.222656 178.386719 148.222656 Z M 178.203125 148.222656 " fill-opacity="1" fill-rule="nonzero"/><path fill="#404040" d="M 104.71875 148.222656 C 103.820312 148.234375 102.925781 148.332031 102.046875 148.515625 C 101.164062 148.699219 100.304688 148.96875 99.476562 149.320312 C 98.644531 149.667969 97.855469 150.097656 97.109375 150.597656 C 96.359375 151.101562 95.667969 151.671875 95.03125 152.308594 C 94.394531 152.949219 93.824219 153.640625 93.320312 154.386719 C 92.816406 155.136719 92.390625 155.925781 92.039062 156.753906 C 91.6875 157.585938 91.421875 158.441406 91.238281 159.324219 C 91.050781 160.207031 90.953125 161.097656 90.941406 162 C 90.953125 162.910156 91.054688 163.808594 91.242188 164.699219 C 91.429688 165.585938 91.703125 166.449219 92.058594 167.285156 C 92.414062 168.121094 92.847656 168.917969 93.359375 169.667969 C 93.871094 170.421875 94.449219 171.117188 95.097656 171.753906 C 95.742188 172.390625 96.445312 172.960938 97.203125 173.464844 C 97.960938 173.964844 98.761719 174.386719 99.601562 174.734375 C 100.445312 175.078125 101.3125 175.339844 102.203125 175.515625 C 103.09375 175.691406 103.996094 175.777344 104.90625 175.777344 C 105.808594 175.777344 106.703125 175.691406 107.59375 175.511719 C 108.480469 175.335938 109.339844 175.074219 110.175781 174.730469 C 111.011719 174.382812 111.808594 173.957031 112.558594 173.457031 C 113.3125 172.953125 114.007812 172.382812 114.648438 171.742188 C 115.285156 171.101562 115.859375 170.40625 116.359375 169.65625 C 116.863281 168.902344 117.289062 168.109375 117.632812 167.273438 C 117.980469 166.4375 118.242188 165.574219 118.417969 164.6875 C 118.59375 163.800781 118.683594 162.90625 118.683594 162 C 118.683594 161.09375 118.59375 160.199219 118.417969 159.3125 C 118.242188 158.425781 117.980469 157.5625 117.632812 156.726562 C 117.289062 155.890625 116.863281 155.097656 116.359375 154.34375 C 115.859375 153.59375 115.285156 152.898438 114.648438 152.257812 C 114.007812 151.617188 113.3125 151.046875 112.558594 150.542969 C 111.808594 150.042969 111.011719 149.617188 110.175781 149.269531 C 109.339844 148.925781 108.480469 148.664062 107.59375 148.488281 C 106.703125 148.308594 105.808594 148.222656 104.90625 148.222656 Z M 104.71875 148.222656 " fill-opacity="1" fill-rule="nonzero"/><path fill="#404040" d="M 190.878906 266.898438 C 190.175781 265.242188 189.195312 263.773438 187.941406 262.488281 L 151.199219 225.746094 C 150.566406 225.070312 149.875 224.460938 149.125 223.925781 C 148.371094 223.386719 147.570312 222.929688 146.726562 222.554688 C 145.882812 222.175781 145.007812 221.890625 144.105469 221.6875 C 143.199219 221.488281 142.285156 221.378906 141.363281 221.363281 C 140.4375 221.347656 139.519531 221.421875 138.609375 221.589844 C 137.699219 221.757812 136.816406 222.015625 135.957031 222.363281 C 135.101562 222.710938 134.285156 223.140625 133.515625 223.648438 C 132.742188 224.160156 132.03125 224.742188 131.375 225.394531 C 130.722656 226.050781 130.140625 226.761719 129.628906 227.535156 C 129.117188 228.304688 128.6875 229.121094 128.34375 229.980469 C 127.996094 230.835938 127.738281 231.71875 127.570312 232.628906 C 127.402344 233.539062 127.324219 234.457031 127.34375 235.382812 C 127.359375 236.308594 127.46875 237.222656 127.667969 238.125 C 127.867188 239.027344 128.15625 239.902344 128.53125 240.746094 C 128.910156 241.59375 129.367188 242.390625 129.902344 243.144531 C 130.441406 243.898438 131.046875 244.589844 131.726562 245.21875 L 144.953125 258.445312 L 86.351562 258.445312 C 84.394531 258.441406 82.449219 258.339844 80.503906 258.140625 C 78.558594 257.945312 76.628906 257.65625 74.714844 257.269531 C 72.800781 256.882812 70.90625 256.40625 69.039062 255.835938 C 67.171875 255.265625 65.335938 254.601562 63.53125 253.851562 C 61.726562 253.101562 59.964844 252.265625 58.242188 251.34375 C 56.519531 250.417969 54.847656 249.414062 53.222656 248.328125 C 51.597656 247.242188 50.03125 246.078125 48.523438 244.839844 C 47.011719 243.597656 45.566406 242.289062 44.1875 240.90625 C 42.804688 239.523438 41.492188 238.078125 40.253906 236.570312 C 39.011719 235.058594 37.851562 233.492188 36.761719 231.867188 C 35.675781 230.246094 34.671875 228.570312 33.75 226.851562 C 32.824219 225.128906 31.988281 223.363281 31.238281 221.5625 C 30.488281 219.757812 29.828125 217.921875 29.257812 216.050781 C 28.6875 214.183594 28.207031 212.292969 27.824219 210.375 C 27.4375 208.460938 27.144531 206.53125 26.949219 204.585938 C 26.753906 202.644531 26.652344 200.695312 26.644531 198.742188 L 26.644531 125.257812 C 26.652344 123.304688 26.753906 121.355469 26.949219 119.414062 C 27.144531 117.46875 27.4375 115.539062 27.824219 113.625 C 28.207031 111.707031 28.6875 109.816406 29.257812 107.949219 C 29.828125 106.078125 30.488281 104.242188 31.238281 102.4375 C 31.988281 100.636719 32.824219 98.871094 33.75 97.148438 C 34.671875 95.429688 35.675781 93.753906 36.761719 92.132812 C 37.851562 90.507812 39.011719 88.941406 40.253906 87.429688 C 41.492188 85.921875 42.804688 84.476562 44.1875 83.09375 C 45.566406 81.710938 47.011719 80.402344 48.523438 79.160156 C 50.03125 77.921875 51.597656 76.757812 53.222656 75.671875 C 54.847656 74.585938 56.519531 73.582031 58.242188 72.65625 C 59.964844 71.734375 61.726562 70.898438 63.53125 70.148438 C 65.335938 69.398438 67.171875 68.734375 69.039062 68.164062 C 70.90625 67.59375 72.800781 67.117188 74.714844 66.730469 C 76.628906 66.34375 78.558594 66.054688 80.503906 65.859375 C 82.449219 65.660156 84.394531 65.558594 86.351562 65.554688 L 104.71875 65.554688 C 105.625 65.554688 106.519531 65.464844 107.410156 65.289062 C 108.296875 65.113281 109.15625 64.851562 109.992188 64.503906 C 110.828125 64.160156 111.625 63.734375 112.375 63.230469 C 113.128906 62.730469 113.824219 62.15625 114.464844 61.519531 C 115.101562 60.878906 115.675781 60.183594 116.175781 59.429688 C 116.679688 58.679688 117.105469 57.882812 117.449219 57.046875 C 117.796875 56.210938 118.058594 55.351562 118.234375 54.464844 C 118.410156 53.578125 118.5 52.679688 118.5 51.777344 C 118.5 50.871094 118.410156 49.976562 118.234375 49.085938 C 118.058594 48.199219 117.796875 47.339844 117.449219 46.503906 C 117.105469 45.667969 116.679688 44.875 116.175781 44.121094 C 115.675781 43.367188 115.101562 42.671875 114.464844 42.03125 C 113.824219 41.394531 113.128906 40.820312 112.375 40.320312 C 111.625 39.816406 110.828125 39.390625 109.992188 39.046875 C 109.15625 38.699219 108.296875 38.4375 107.410156 38.261719 C 106.519531 38.085938 105.625 37.996094 104.71875 37.996094 L 86.351562 37.996094 C 84.921875 37.996094 83.496094 38.03125 82.066406 38.101562 C 80.640625 38.171875 79.21875 38.277344 77.796875 38.417969 C 76.375 38.558594 74.957031 38.734375 73.546875 38.941406 C 72.132812 39.152344 70.726562 39.394531 69.324219 39.675781 C 67.925781 39.953125 66.53125 40.265625 65.148438 40.613281 C 63.761719 40.960938 62.386719 41.339844 61.019531 41.753906 C 59.652344 42.167969 58.296875 42.617188 56.953125 43.097656 C 55.609375 43.578125 54.277344 44.09375 52.957031 44.640625 C 51.636719 45.1875 50.332031 45.765625 49.042969 46.375 C 47.75 46.984375 46.476562 47.628906 45.214844 48.300781 C 43.957031 48.972656 42.714844 49.679688 41.488281 50.414062 C 40.265625 51.144531 39.058594 51.910156 37.871094 52.703125 C 36.683594 53.496094 35.515625 54.320312 34.367188 55.167969 C 33.222656 56.019531 32.097656 56.898438 30.992188 57.804688 C 29.886719 58.710938 28.808594 59.644531 27.75 60.601562 C 26.691406 61.5625 25.65625 62.546875 24.648438 63.554688 C 23.636719 64.566406 22.652344 65.597656 21.695312 66.65625 C 20.734375 67.714844 19.800781 68.796875 18.894531 69.902344 C 17.992188 71.003906 17.113281 72.128906 16.261719 73.277344 C 15.410156 74.425781 14.589844 75.589844 13.796875 76.777344 C 13 77.964844 12.238281 79.171875 11.503906 80.398438 C 10.769531 81.621094 10.066406 82.863281 9.394531 84.125 C 8.71875 85.382812 8.078125 86.660156 7.46875 87.949219 C 6.855469 89.242188 6.277344 90.546875 5.730469 91.863281 C 5.183594 93.183594 4.671875 94.515625 4.191406 95.859375 C 3.707031 97.207031 3.261719 98.5625 2.847656 99.929688 C 2.433594 101.292969 2.050781 102.671875 1.703125 104.054688 C 1.355469 105.441406 1.042969 106.835938 0.765625 108.234375 C 0.488281 109.636719 0.242188 111.042969 0.0351562 112.453125 C -0.175781 113.867188 -0.351562 115.285156 -0.492188 116.707031 C -0.632812 118.125 -0.734375 119.550781 -0.804688 120.976562 C -0.875 122.402344 -0.910156 123.832031 -0.910156 125.257812 L -0.910156 198.742188 C -0.910156 200.167969 -0.875 201.597656 -0.804688 203.023438 C -0.734375 204.449219 -0.632812 205.875 -0.492188 207.292969 C -0.351562 208.714844 -0.175781 210.132812 0.0351562 211.546875 C 0.242188 212.957031 0.488281 214.363281 0.765625 215.765625 C 1.042969 217.164062 1.355469 218.558594 1.703125 219.945312 C 2.050781 221.328125 2.433594 222.707031 2.847656 224.070312 C 3.261719 225.4375 3.707031 226.792969 4.191406 228.140625 C 4.671875 229.484375 5.183594 230.816406 5.730469 232.136719 C 6.277344 233.453125 6.855469 234.757812 7.46875 236.050781 C 8.078125 237.339844 8.71875 238.617188 9.390625 239.875 C 10.066406 241.136719 10.769531 242.378906 11.503906 243.601562 C 12.238281 244.828125 13 246.035156 13.796875 247.222656 C 14.589844 248.410156 15.410156 249.574219 16.261719 250.722656 C 17.113281 251.871094 17.992188 252.996094 18.894531 254.097656 C 19.800781 255.203125 20.734375 256.285156 21.695312 257.34375 C 22.652344 258.402344 23.636719 259.433594 24.648438 260.445312 C 25.65625 261.453125 26.691406 262.4375 27.75 263.398438 C 28.808594 264.355469 29.886719 265.289062 30.992188 266.195312 C 32.097656 267.101562 33.222656 267.980469 34.367188 268.832031 C 35.515625 269.679688 36.683594 270.503906 37.871094 271.296875 C 39.058594 272.089844 40.265625 272.851562 41.488281 273.585938 C 42.714844 274.320312 43.957031 275.027344 45.214844 275.699219 C 46.476562 276.371094 47.75 277.015625 49.042969 277.625 C 50.332031 278.234375 51.636719 278.8125 52.957031 279.359375 C 54.277344 279.90625 55.609375 280.421875 56.953125 280.902344 C 58.296875 281.382812 59.652344 281.832031 61.019531 282.246094 C 62.386719 282.660156 63.761719 283.039062 65.148438 283.386719 C 66.53125 283.734375 67.925781 284.046875 69.324219 284.324219 C 70.726562 284.605469 72.132812 284.847656 73.546875 285.058594 C 74.957031 285.265625 76.375 285.441406 77.796875 285.582031 C 79.21875 285.722656 80.640625 285.828125 82.066406 285.898438 C 83.496094 285.96875 84.921875 286.003906 86.351562 286.003906 L 144.953125 286.003906 L 131.726562 299.230469 C 131.085938 299.867188 130.515625 300.566406 130.015625 301.316406 C 129.511719 302.070312 129.089844 302.863281 128.742188 303.695312 C 128.398438 304.53125 128.136719 305.394531 127.960938 306.28125 C 127.785156 307.167969 127.695312 308.0625 127.695312 308.964844 C 127.695312 309.871094 127.785156 310.765625 127.960938 311.652344 C 128.136719 312.539062 128.398438 313.398438 128.742188 314.234375 C 129.089844 315.070312 129.511719 315.863281 130.015625 316.613281 C 130.515625 317.367188 131.085938 318.0625 131.726562 318.703125 C 132.363281 319.339844 133.0625 319.910156 133.8125 320.414062 C 134.566406 320.914062 135.359375 321.339844 136.195312 321.683594 C 137.027344 322.03125 137.890625 322.292969 138.777344 322.46875 C 139.664062 322.644531 140.558594 322.730469 141.460938 322.730469 C 142.367188 322.730469 143.261719 322.644531 144.148438 322.46875 C 145.035156 322.292969 145.894531 322.03125 146.730469 321.683594 C 147.566406 321.339844 148.359375 320.914062 149.113281 320.414062 C 149.863281 319.910156 150.558594 319.339844 151.199219 318.703125 L 187.941406 281.960938 C 189.195312 280.675781 190.175781 279.207031 190.878906 277.550781 C 191.613281 275.851562 191.984375 274.078125 191.984375 272.222656 C 191.984375 270.371094 191.613281 268.597656 190.878906 266.898438 Z M 190.878906 266.898438 " fill-opacity="1" fill-rule="nonzero"/></svg>