<svg xmlns="http://www.w3.org/2000/svg" xmlns:xlink="http://www.w3.org/1999/xlink" width="896" zoomAndPan="magnify" viewBox="0 0 672 671.999997" height="896" preserveAspectRatio="xMidYMid meet" version="1.0"><defs><clipPath id="0d19d5789e"><path d="M 0 0 L 671.769531 0 L 671.769531 671.769531 L 0 671.769531 Z M 0 0 " clip-rule="nonzero"/></clipPath><clipPath id="5ee99c6205"><path d="M 335.886719 0 C 150.382812 0 0 150.382812 0 335.886719 C 0 521.390625 150.382812 671.769531 335.886719 671.769531 C 521.390625 671.769531 671.769531 521.390625 671.769531 335.886719 C 671.769531 150.382812 521.390625 0 335.886719 0 Z M 335.886719 0 " clip-rule="nonzero"/></clipPath><clipPath id="3def0c0f40"><path d="M 93.339844 167.40625 L 578 167.40625 L 578 491.40625 L 93.339844 491.40625 Z M 93.339844 167.40625 " clip-rule="nonzero"/></clipPath></defs><rect x="-67.2" width="806.4" fill="#ffffff" y="-67.2" height="806.399996" fill-opacity="1"/><g clip-path="url(#0d19d5789e)"><g clip-path="url(#5ee99c6205)"><path fill="#eaf6ed" d="M 0 0 L 671.769531 0 L 671.769531 671.769531 L 0 671.769531 Z M 0 0 " fill-opacity="1" fill-rule="nonzero"/></g></g><g clip-path="url(#3def0c0f40)"><path fill="#5cb874" d="M 140.011719 491.097656 C 134.910156 490.203125 130.027344 488.421875 122.867188 484.847656 C 111.164062 479.003906 106.394531 474.027344 99.714844 460.679688 C 94.378906 450.019531 93.714844 446.710938 93.808594 431.296875 C 93.859375 424.832031 94.628906 376.453125 95.542969 323.792969 C 96.460938 271.128906 97.1875 225.707031 97.15625 222.855469 C 97.078125 216.617188 98.386719 208.519531 100.167969 203.964844 C 102.570312 197.839844 111.351562 183.921875 115.25 180.058594 C 120.054688 175.296875 125.875 171.539062 130.59375 170.148438 C 139.542969 167.507812 146.152344 167.429688 345.160156 167.667969 C 526.078125 167.882812 538.296875 167.972656 542.042969 169.101562 C 548.265625 170.976562 551.492188 172.910156 556.609375 177.84375 C 564.671875 185.617188 572.199219 198.117188 576.078125 210.160156 C 577.691406 215.164062 577.855469 216.617188 577.605469 223.296875 C 577.277344 231.867188 575.480469 316.425781 574.308594 378.304688 C 573.703125 410.515625 573.710938 422.777344 574.363281 432.101562 C 574.820312 438.742188 574.988281 445.839844 574.734375 447.867188 C 573.734375 455.867188 565.207031 468.988281 555.761719 477.054688 C 550.074219 481.90625 542.765625 485.796875 533.957031 488.65625 L 528.46875 490.433594 L 341.070312 490.699219 C 238 490.847656 151.335938 491.128906 148.484375 491.324219 C 145.632812 491.515625 141.828125 491.417969 140.023438 491.101562 Z M 477.898438 470.875 L 527.675781 470.703125 L 533.875 467.980469 C 538.972656 465.738281 540.933594 464.394531 544.96875 460.375 C 550.4375 454.929688 553.917969 449.988281 555.125 445.964844 C 555.753906 443.871094 555.722656 442.121094 554.996094 437.980469 C 554.476562 435.066406 554.109375 428.945312 554.175781 424.382812 C 555.457031 334.027344 557.242188 240.023438 557.839844 231.148438 C 558.644531 219.179688 558.097656 213.863281 556.054688 213.863281 C 555.53125 213.863281 553.441406 215.363281 551.414062 217.195312 C 549.390625 219.027344 509.070312 254.367188 461.8125 295.730469 C 414.558594 337.09375 375.4375 371.820312 374.875 372.90625 C 372.695312 377.125 364.59375 381.464844 352.234375 385.03125 C 336.019531 389.710938 325.925781 388.878906 313.761719 381.859375 C 309.726562 379.527344 302.035156 373.535156 290.824219 363.984375 C 172.640625 263.320312 124.046875 222.039062 121.21875 219.882812 C 119.3125 218.433594 117.550781 217.550781 117.21875 217.882812 C 116.890625 218.210938 116.578125 220.785156 116.53125 223.605469 C 115.785156 265.632812 115.152344 323.886719 115.441406 324.171875 C 115.648438 324.375 128.289062 324.519531 143.539062 324.496094 C 173.484375 324.449219 174.0625 324.523438 177.4375 328.171875 C 179.628906 330.550781 180.195312 335.816406 178.589844 338.914062 C 177.960938 340.136719 176.449219 341.742188 175.230469 342.484375 C 173.128906 343.765625 171.5625 343.835938 144.195312 343.835938 C 128.339844 343.835938 115.21875 344.089844 115.027344 344.398438 C 114.84375 344.703125 114.457031 358.230469 114.1875 374.457031 L 113.695312 403.957031 L 184.835938 404.144531 L 255.980469 404.332031 L 258.464844 405.875 C 264.714844 409.761719 264.527344 419.007812 258.125 422.515625 C 256.160156 423.59375 250.074219 423.71875 184.773438 424.035156 L 113.5625 424.378906 L 113.5625 444.667969 L 117.597656 452.652344 C 120.089844 457.582031 122.550781 461.445312 124.027344 462.742188 C 126.425781 464.847656 134.441406 469.1875 138.597656 470.625 C 140.65625 471.339844 307.8125 471.460938 477.90625 470.871094 Z M 344.566406 366.964844 C 348.3125 365.996094 352.367188 364.671875 353.570312 364.027344 C 356.109375 362.660156 542.421875 199.5625 544.589844 196.804688 L 546.042969 194.953125 L 543.097656 191.949219 C 541.382812 190.207031 539.082031 188.65625 537.605469 188.261719 C 535.949219 187.8125 465.878906 187.640625 336.410156 187.757812 C 144.792969 187.933594 137.664062 187.984375 135.1875 189.21875 C 131.886719 190.859375 126.347656 196.003906 126.347656 197.433594 C 126.347656 198.035156 128.757812 200.542969 131.707031 203 C 134.652344 205.457031 144.867188 214.117188 154.40625 222.246094 C 191.71875 254.042969 305.308594 350.746094 309.554688 354.328125 C 317 360.605469 325.933594 366.734375 329.070312 367.710938 C 333.476562 369.089844 337.015625 368.917969 344.566406 366.964844 Z M 344.566406 366.964844 " fill-opacity="1" fill-rule="nonzero"/></g></svg>