<svg xmlns="http://www.w3.org/2000/svg" xmlns:xlink="http://www.w3.org/1999/xlink" width="896" zoomAndPan="magnify" viewBox="0 0 672 671.999997" height="896" preserveAspectRatio="xMidYMid meet" version="1.0"><defs><clipPath id="c480288122"><path d="M 0 0 L 671.769531 0 L 671.769531 671.769531 L 0 671.769531 Z M 0 0 " clip-rule="nonzero"/></clipPath><clipPath id="8e7d8bbfff"><path d="M 335.886719 0 C 150.382812 0 0 150.382812 0 335.886719 C 0 521.390625 150.382812 671.769531 335.886719 671.769531 C 521.390625 671.769531 671.769531 521.390625 671.769531 335.886719 C 671.769531 150.382812 521.390625 0 335.886719 0 Z M 335.886719 0 " clip-rule="nonzero"/></clipPath><clipPath id="9abbc48ee4"><path d="M 209 173.886719 L 462.890625 173.886719 L 462.890625 497 L 209 497 Z M 209 173.886719 " clip-rule="nonzero"/></clipPath></defs><rect x="-67.2" width="806.4" fill="#ffffff" y="-67.2" height="806.399996" fill-opacity="1"/><g clip-path="url(#c480288122)"><g clip-path="url(#8e7d8bbfff)"><path fill="#eaf6ed" d="M 0 0 L 671.769531 0 L 671.769531 671.769531 L 0 671.769531 Z M 0 0 " fill-opacity="1" fill-rule="nonzero"/></g></g><g clip-path="url(#9abbc48ee4)"><path fill="#5cb874" d="M 335.882812 173.886719 C 265.882812 173.886719 209.050781 230.71875 209.050781 300.71875 C 209.050781 332.75 228.121094 370.832031 251.703125 404.710938 C 285.589844 453.414062 327.949219 493.574219 327.949219 493.574219 C 332.402344 497.78125 339.367188 497.78125 343.816406 493.574219 C 343.816406 493.574219 386.179688 453.414062 420.066406 404.710938 C 443.644531 370.832031 462.714844 332.75 462.714844 300.71875 C 462.714844 230.71875 405.882812 173.886719 335.882812 173.886719 Z M 335.882812 196.945312 C 393.15625 196.945312 439.65625 243.445312 439.65625 300.71875 C 439.65625 328.828125 421.828125 361.804688 401.132812 391.542969 C 377.390625 425.660156 349.316406 455.417969 335.882812 469 C 322.449219 455.417969 294.375 425.660156 270.632812 391.542969 C 249.9375 361.804688 232.113281 328.828125 232.113281 300.71875 C 232.113281 243.445312 278.613281 196.945312 335.882812 196.945312 Z M 335.882812 237.300781 C 300.878906 237.300781 272.46875 265.710938 272.46875 300.71875 C 272.46875 335.722656 300.878906 364.132812 335.882812 364.132812 C 370.890625 364.132812 399.300781 335.722656 399.300781 300.71875 C 399.300781 265.710938 370.890625 237.300781 335.882812 237.300781 Z M 335.882812 260.363281 C 358.160156 260.363281 376.238281 278.441406 376.238281 300.71875 C 376.238281 322.996094 358.160156 341.074219 335.882812 341.074219 C 313.605469 341.074219 295.527344 322.996094 295.527344 300.71875 C 295.527344 278.441406 313.605469 260.363281 335.882812 260.363281 Z M 335.882812 260.363281 " fill-opacity="1" fill-rule="evenodd"/></g></svg>